<?xml version="1.0" encoding="iso-8859-1"?>
<!-- Generator: Adobe Illustrator 19.0.0, SVG Export Plug-In . SVG Version: 6.00 Build 0)  -->
<svg version="1.1" id="Capa_1" xmlns="http://www.w3.org/2000/svg" xmlns:xlink="http://www.w3.org/1999/xlink" x="0px" y="0px"
	 viewBox="0 0 320 320" style="enable-background:new 0 0 320 320;" xml:space="preserve">
<g>
	<g>
		<path d="M277.333,42.667C265.557,42.667,256,52.245,256,64v10.667c0,5.888-4.779,10.667-10.667,10.667
			c-5.888,0-10.667-4.779-10.667-10.667v-32c0-11.755-9.557-21.333-21.333-21.333S192,30.912,192,42.667v32
			c0,5.888-4.779,10.667-10.667,10.667s-10.667-4.779-10.667-10.667V21.333C170.667,9.579,161.109,0,149.333,0S128,9.579,128,21.333
			v53.333c0,5.888-4.779,10.667-10.667,10.667s-10.667-4.779-10.667-10.667v-32c0-11.755-9.557-21.333-21.333-21.333
			S64,30.912,64,42.667v53.312C64,96,64,96,64,96.021v42.645c0,5.888-4.779,10.667-10.667,10.667s-10.667-4.779-10.667-10.667
			v-16.917l-5.717,5.717c-10.069,10.069-15.616,23.467-15.616,37.717v32.32c0,14.229,5.547,27.627,15.616,37.717l42.688,42.667
			C106.773,305.045,142.891,320,181.312,320c64.704,0,117.355-52.629,117.355-117.333V64
			C298.667,52.245,289.109,42.667,277.333,42.667z"/>
	</g>
</g>
<g>
</g>
<g>
</g>
<g>
</g>
<g>
</g>
<g>
</g>
<g>
</g>
<g>
</g>
<g>
</g>
<g>
</g>
<g>
</g>
<g>
</g>
<g>
</g>
<g>
</g>
<g>
</g>
<g>
</g>
</svg>
