<svg id="Capa_1" enable-background="new 0 0 512 512" height="512" viewBox="0 0 512 512" width="512" xmlns="http://www.w3.org/2000/svg" xmlns:xlink="http://www.w3.org/1999/xlink">
	<linearGradient id="SVGID_1_" gradientUnits="userSpaceOnUse" x1="256" x2="256" y1="446.8" y2="61">
		<stop offset="0" stop-color="#ffc2cc"/>
		<stop offset="1" stop-color="#fff2f4"/>
	</linearGradient>
	<linearGradient id="SVGID_2_" gradientUnits="userSpaceOnUse" x1="253.9" x2="253.9" y1="451" y2="151">
		<stop offset="0" stop-color="#fd3a84"/>
		<stop offset="1" stop-color="#ffa68d"/>
	</linearGradient>
	<g>
		<g>
			<g>
				<path d="m497 61h-482c-8.401 0-15 6.599-15 15v345l196-135 120 150 60-60 131.8 70.8c2.401-3 4.2-6.6 4.2-10.8v-360c0-8.401-6.599-15-15-15z" fill="url(#SVGID_1_)"/>
			</g>
		</g>
		<g>
			<g>
				<path d="m346 241c24.814 0 45-20.186 45-45s-20.186-45-45-45-45 20.186-45 45 20.186 45 45 45zm40.607 85.606c-5.858-5.858-15.355-5.858-21.213 0l-49.394 49.394-109.531-136.914c-5.585-6.981-15.998-7.558-22.32-1.236l-184.149 183.15v15c0 8.399 6.599 15 15 15h482c4.2 0 7.8-1.8 10.8-4.2z" fill="url(#SVGID_2_)"/>
			</g>
		</g>
	</g>
</svg>